<svg width="121" height="50" viewBox="0 0 121 50" fill="none" xmlns="http://www.w3.org/2000/svg">
<path d="M0 25C0 11.1929 11.1929 0 25 0V25H0Z" fill="#FF1835"/>
<path d="M50 25C50 38.8071 38.8071 50 25 50V25H50Z" fill="#FF1835"/>
<path fill-rule="evenodd" clip-rule="evenodd" d="M25 0C34.2535 0 42.3328 5.02748 46.6554 12.5H25V0Z" fill="#FBA409"/>
<path fill-rule="evenodd" clip-rule="evenodd" d="M25 50C15.7465 50 7.66718 44.9725 3.34456 37.5H25V50Z" fill="#FBA409"/>
<path d="M72.6196 29.2786C72.6196 28.9368 72.5667 28.6316 72.4609 28.363C72.3633 28.0863 72.1802 27.8381 71.9116 27.6184C71.6512 27.3905 71.2809 27.1708 70.8008 26.9592C70.3288 26.7395 69.7184 26.5116 68.9697 26.2756C68.1396 26.0152 67.3665 25.7222 66.6504 25.3967C65.9342 25.0712 65.3035 24.6928 64.7583 24.2615C64.2212 23.8302 63.8021 23.3337 63.501 22.7722C63.1999 22.2026 63.0493 21.5434 63.0493 20.7947C63.0493 20.0623 63.2039 19.3949 63.5132 18.7927C63.8306 18.1905 64.2782 17.6737 64.856 17.2424C65.4338 16.803 66.1133 16.4653 66.8945 16.2292C67.6839 15.9932 68.5547 15.8752 69.5068 15.8752C70.8252 15.8752 71.9645 16.1153 72.9248 16.5955C73.8932 17.0756 74.6419 17.7266 75.1709 18.5486C75.6999 19.3705 75.9644 20.2942 75.9644 21.3196H72.6196C72.6196 20.7662 72.5016 20.2779 72.2656 19.8547C72.0378 19.4316 71.6878 19.0979 71.2158 18.8538C70.752 18.6096 70.166 18.4875 69.458 18.4875C68.7744 18.4875 68.2048 18.5893 67.749 18.7927C67.3014 18.9962 66.9637 19.2729 66.7358 19.6228C66.5161 19.9727 66.4062 20.3634 66.4062 20.7947C66.4062 21.1202 66.4836 21.4132 66.6382 21.6736C66.7928 21.9259 67.0247 22.1659 67.334 22.3938C67.6432 22.6135 68.0257 22.821 68.4814 23.0164C68.9453 23.2035 69.4824 23.3907 70.0928 23.5779C71.0693 23.8708 71.9238 24.1964 72.6562 24.5544C73.3968 24.9125 74.0112 25.3194 74.4995 25.7751C74.9959 26.2309 75.3662 26.7436 75.6104 27.3132C75.8626 27.8829 75.9888 28.5299 75.9888 29.2541C75.9888 30.0191 75.8382 30.7027 75.5371 31.3049C75.236 31.9071 74.8047 32.4198 74.2432 32.843C73.6816 33.2662 73.0062 33.5876 72.2168 33.8074C71.4355 34.0271 70.5607 34.137 69.5923 34.137C68.7297 34.137 67.8752 34.023 67.0288 33.7952C66.1906 33.5592 65.4297 33.2092 64.7461 32.7454C64.0625 32.2734 63.5173 31.6793 63.1104 30.9631C62.7035 30.2388 62.5 29.3925 62.5 28.4241H65.8691C65.8691 28.9856 65.9587 29.4657 66.1377 29.8645C66.3249 30.2551 66.5853 30.5766 66.9189 30.8289C67.2607 31.073 67.6595 31.252 68.1152 31.366C68.571 31.4799 69.0633 31.5369 69.5923 31.5369C70.2759 31.5369 70.8374 31.4433 71.2769 31.2561C71.7244 31.0608 72.0581 30.7922 72.2778 30.4504C72.5057 30.1086 72.6196 29.718 72.6196 29.2786Z" fill="white"/>
<path d="M83.1533 16.1194V33.8928H79.7964V16.1194H83.1533Z" fill="white"/>
<path d="M101.646 24.7009V31.6223C101.386 31.956 100.975 32.3181 100.413 32.7087C99.8597 33.0994 99.1354 33.4371 98.2402 33.7219C97.345 33.9986 96.2464 34.137 94.9443 34.137C93.8131 34.137 92.7796 33.9498 91.8437 33.5754C90.9079 33.193 90.1022 32.6355 89.4268 31.9031C88.7513 31.1707 88.2305 30.2755 87.8643 29.2175C87.498 28.1596 87.3149 26.9511 87.3149 25.592V24.4202C87.3149 23.0611 87.4858 21.8526 87.8276 20.7947C88.1776 19.7367 88.674 18.8416 89.3169 18.1091C89.9679 17.3767 90.7451 16.8193 91.6484 16.4368C92.5599 16.0543 93.5771 15.863 94.7002 15.863C96.2057 15.863 97.4427 16.1112 98.4111 16.6077C99.3877 17.1041 100.136 17.7877 100.657 18.6584C101.178 19.5211 101.504 20.5139 101.634 21.637H98.3623C98.2728 21.0185 98.0937 20.4773 97.8252 20.0134C97.5566 19.5414 97.1741 19.1752 96.6777 18.9148C96.1894 18.6462 95.5547 18.512 94.7734 18.512C94.1143 18.512 93.5324 18.6422 93.0278 18.9026C92.5233 19.163 92.1001 19.5414 91.7583 20.0378C91.4165 20.5343 91.1561 21.1487 90.977 21.8811C90.8061 22.6135 90.7207 23.4517 90.7207 24.3958V25.592C90.7207 26.5442 90.8184 27.3905 91.0137 28.1311C91.209 28.8635 91.4897 29.482 91.856 29.9866C92.2303 30.483 92.6901 30.8614 93.2353 31.1218C93.7887 31.3741 94.4154 31.5002 95.1152 31.5002C95.75 31.5002 96.2749 31.4473 96.6899 31.3416C97.1131 31.2276 97.4508 31.0933 97.7031 30.9387C97.9554 30.7841 98.1507 30.6335 98.2891 30.4871V27.1545H94.7612V24.7009H101.646Z" fill="white"/>
<path d="M112.888 18.8171L107.822 33.8928H104.27L110.91 16.1194H113.181L112.888 18.8171ZM117.124 33.8928L112.033 18.8171L111.728 16.1194H114.011L120.688 33.8928H117.124ZM116.892 27.2888V29.9377H107.358V27.2888H116.892Z" fill="white"/>
</svg>
